<svg xmlns="http://www.w3.org/2000/svg" viewBox="0 0 266.11 266.11"><title>instagram</title><path d="M68.1 266.1H198a68.18 68.18 0 0 0 68.1-68.1V68.1A68.2 68.2 0 0 0 198 0H68.1A68.2 68.2 0 0 0 0 68.1V198a68.18 68.18 0 0 0 68.1 68.1zM8 68.1A60.17 60.17 0 0 1 68.1 8H198a60.18 60.18 0 0 1 60.1 60.1V198a60.17 60.17 0 0 1-60.1 60.1H68.1A60.17 60.17 0 0 1 8 198zm0 0M213.02 70.65a17.57 17.57 0 1 0-17.57-17.57 17.6 17.6 0 0 0 17.57 17.57zm0-27.15a9.57 9.57 0 1 1-9.57 9.57 9.6 9.6 0 0 1 9.57-9.57zM72.52 237.05a4 4 0 0 0 0-8 35.5 35.5 0 0 1-35.46-35.47v-72.53a4 4 0 0 0-8 0v72.53a43.52 43.52 0 0 0 43.46 43.47zM33.05 92.25a4 4 0 0 0 4-4V72.52a4 4 0 0 0-8 0v15.73a4 4 0 0 0 4 4zm161.54 13.62a4 4 0 0 0 7.3-3.24 75.42 75.42 0 0 0-11-17.75 4 4 0 0 0-6.13 5.13 67.24 67.24 0 0 1 9.87 15.87zm-61.55-14.2a41.37 41.37 0 1 0 41.37 41.38 41.42 41.42 0 0 0-41.37-41.37zm0 74.75a33.37 33.37 0 1 1 33.37-33.37 33.4 33.4 0 0 1-33.37 33.37zm0 0M133.05 208.32a75.36 75.36 0 0 0 75.27-75.27 4 4 0 1 0-8 0 67.27 67.27 0 1 1-67.27-67.27 66.5 66.5 0 0 1 28.7 6.47 4 4 0 1 0 3.4-7.23 74.43 74.43 0 0 0-32.1-7.2 75.28 75.28 0 1 0 0 150.55zm0 0"/></svg>