<svg xmlns="http://www.w3.org/2000/svg" viewBox="0 130 1080 700"><path d="M215.2 612.7v-31l26.3-.2V405.4h-25.8v-31.7h57.1c0 29.2.1 207.8.1 207.8h26.9v31.1l-84.6.1zM805 594.8v111.5h-31.3V498.8H748v-31.7h56.9v18.3c1-.7 1.5-1 2-1.4 40.4-40.6 102.8-21.3 118.6 29.2 10 32.1 2.9 62.3-20.1 85.5-26.8 26.4-69.8 26-97-1.2-.9-.9-1.6-2-2.4-3-.4 0-.7.2-1 .3zm51-8.2c18.9 0 43.9-15.9 43.9-45.5 0-31.2-22.6-47.7-43-47.7-21.1 0-43.4 17.2-43.4 47.3 0 27.8 22.4 45.9 42.5 45.9zm-304.1-119l56.7-.4v7.7c.9-.4 1.4-.6 1.8-.9 28.5-22 68.4-14.3 86.7 16.7 8.2 14 11.7 29.3 11.9 45.3.3 24.7 0 75.7-.1 76.7h-31.4c0-1.3 0-53.5-.2-78.4 0-10.7-.8-14.3-3.7-21.3-7.9-18.8-33-26.8-50-13.4-9.9 7.8-14.7 19.1-14.7 31.1 0 3.4.1 8.1 0 12.1-.1 22.1 0 68.5 0 69.9h-30l.4-113.9H552v-31.2zm-75.2-.9v24.9s-17.8-30.2-59.4-30.2c-39.3 0-70.3 36.6-70.3 79.9 0 37.9 29.8 76.2 70.9 76.2 42.3 0 59.7-32 59.7-32v27.1l30.5.3V466.7h-31.4zM419.9 586c-23.5 0-42.6-20.8-42.6-46.4 0-25.6 19.1-46.4 42.6-46.4s42.6 20.8 42.6 46.4c0 25.6-19.1 46.4-42.6 46.4zm-301.6-7.3h33.9v33.9h-33.9z"/></svg>