<svg xmlns="http://www.w3.org/2000/svg" viewBox="0 0 26 27">
  <path fill="#FFF" d="M933-1406h-26v27h26v-27z"/>
  <path id="b" fill-rule="evenodd" d="M14.196 12.5L24.65 2.047c.467-.468.467-1.228 0-1.696-.47-.467-1.228-.467-1.697 0L12.5 10.805 2.047.354C1.58-.117.82-.117.35.353-.116.82-.116 1.58.35 2.047L10.805 12.5.354 22.954c-.47.468-.47 1.227 0 1.695.234.234.54.352.846.352.307 0 .613-.117.847-.352L12.5 14.195l10.453 10.453c.235.234.54.352.847.352.307 0 .614-.117.847-.352.47-.468.47-1.227 0-1.695L14.197 12.5z"/>
</svg>
